<svg width="138" height="31" viewBox="0 0 138 31" fill="none" xmlns="http://www.w3.org/2000/svg">
<g filter="url(#filter0_d_31_217)">
<path d="M125.516 24C123.636 24 122.136 23.85 121.016 23.55C119.916 23.27 119.126 22.88 118.646 22.38C118.166 21.88 117.926 21.33 117.926 20.73C117.926 20.27 118.046 19.74 118.286 19.14C118.546 18.54 118.916 17.97 119.396 17.43C119.736 17.89 120.186 18.32 120.746 18.72C121.326 19.1 121.956 19.41 122.636 19.65C123.316 19.87 123.976 19.98 124.616 19.98C125.316 19.98 125.946 19.82 126.506 19.5C127.066 19.16 127.436 18.59 127.616 17.79C124.536 17.43 122.326 16.75 120.986 15.75C119.646 14.73 118.976 13.32 118.976 11.52C118.976 10.38 119.246 9.41 119.786 8.61C120.326 7.81 121.046 7.17 121.946 6.69C122.866 6.19 123.906 5.83 125.066 5.61C126.246 5.37 127.466 5.25 128.726 5.25C129.906 5.25 130.956 5.41 131.876 5.73C132.796 6.03 133.516 6.44 134.036 6.96C134.556 7.48 134.816 8.08 134.816 8.76C134.816 9.72 134.466 10.45 133.766 10.95C133.086 11.45 132.306 11.7 131.426 11.7C130.826 11.7 130.196 11.5 129.536 11.1C128.876 10.7 128.346 10.08 127.946 9.24C127.206 9.46 126.616 9.78 126.176 10.2C125.736 10.6 125.346 11.18 125.006 11.94C127.286 12.28 129.096 12.71 130.436 13.23C131.776 13.75 132.736 14.41 133.316 15.21C133.916 15.99 134.216 16.96 134.216 18.12C134.216 19.04 134.006 19.84 133.586 20.52C133.186 21.2 132.656 21.76 131.996 22.2C131.336 22.64 130.616 22.99 129.836 23.25C129.056 23.53 128.286 23.72 127.526 23.82C126.766 23.94 126.096 24 125.516 24Z" fill="white"/>
</g>
<g filter="url(#filter1_d_31_217)">
<path d="M101.364 24C100.344 24 99.3944 23.73 98.5144 23.19C97.6544 22.63 96.9544 21.83 96.4144 20.79C95.8944 19.73 95.6344 18.45 95.6344 16.95C95.6344 15.71 95.8644 14.45 96.3244 13.17C96.8044 11.87 97.5244 10.68 98.4844 9.6C99.4444 8.52 100.654 7.65 102.114 6.99C103.574 6.33 105.304 6 107.304 6C107.624 6 107.934 6.01 108.234 6.03C108.554 6.05 108.884 6.08 109.224 6.12C109.244 5.98 109.284 5.73 109.344 5.37C109.424 4.99 109.474 4.73 109.494 4.59L107.814 2.19C108.874 1.57 109.884 1.05 110.844 0.630001C111.804 0.21 112.764 0 113.724 0C114.564 0 115.144 0.17 115.464 0.51C115.804 0.83 115.974 1.37 115.974 2.13C115.974 2.83 115.884 3.71 115.704 4.77C115.524 5.81 115.304 6.95 115.044 8.19C114.784 9.41 114.514 10.67 114.234 11.97C113.974 13.27 113.754 14.52 113.574 15.72C113.394 16.92 113.304 18.01 113.304 18.99C113.304 19.93 113.374 20.69 113.514 21.27C113.674 21.83 113.914 22.25 114.234 22.53C113.114 23.51 111.924 24 110.664 24C109.804 24 109.124 23.84 108.624 23.52C108.144 23.2 107.794 22.81 107.574 22.35C107.354 21.89 107.244 21.46 107.244 21.06L106.944 20.91C106.144 21.97 105.254 22.75 104.274 23.25C103.294 23.75 102.324 24 101.364 24ZM104.364 19.5C104.884 19.5 105.414 19.37 105.954 19.11C106.494 18.85 107.004 18.44 107.484 17.88C107.624 16.4 107.804 14.87 108.024 13.29C108.244 11.69 108.514 10.14 108.834 8.64C107.614 8.64 106.524 8.86 105.564 9.3C104.624 9.72 103.834 10.29 103.194 11.01C102.574 11.71 102.094 12.48 101.754 13.32C101.434 14.16 101.274 14.99 101.274 15.81C101.274 16.99 101.574 17.9 102.174 18.54C102.794 19.18 103.524 19.5 104.364 19.5Z" fill="white"/>
</g>
<g filter="url(#filter2_d_31_217)">
<path d="M84.3537 24C83.1337 24 82.2637 23.68 81.7437 23.04C81.2237 22.4 80.9637 21.48 80.9637 20.28C80.9637 19.86 81.0237 19.22 81.1437 18.36C81.2637 17.48 81.4137 16.51 81.5937 15.45C81.7937 14.37 82.0037 13.29 82.2237 12.21C82.4437 11.13 82.6537 10.17 82.8537 9.33L81.2937 6.93C82.3337 6.47 83.2937 6.08 84.1737 5.76C85.0737 5.42 85.8737 5.25 86.5737 5.25C87.0937 5.25 87.4737 5.43 87.7137 5.79C87.9537 6.15 88.0737 6.61 88.0737 7.17C88.0737 7.81 87.9637 8.53 87.7437 9.33C87.5237 10.11 87.3036 10.85 87.0836 11.55L87.3837 11.7C88.0837 9.64 88.8737 8.05 89.7537 6.93C90.6537 5.81 91.6537 5.25 92.7537 5.25C93.4737 5.25 94.0537 5.41 94.4937 5.73C94.9337 6.03 95.2537 6.41 95.4537 6.87C95.6737 7.31 95.7837 7.74 95.7837 8.16C95.7837 8.82 95.6137 9.46 95.2737 10.08C94.9537 10.68 94.4337 11.18 93.7137 11.58C92.9937 11.96 92.0437 12.15 90.8637 12.15C90.4037 12.15 89.9536 12.25 89.5136 12.45C89.0736 12.65 88.6737 13.03 88.3137 13.59C87.9537 14.13 87.6636 14.9 87.4436 15.9C87.2436 16.9 87.1437 18.2 87.1437 19.8C87.1437 21.04 87.3537 21.95 87.7737 22.53C86.5337 23.51 85.3937 24 84.3537 24Z" fill="white"/>
</g>
<g filter="url(#filter3_d_31_217)">
<path d="M67.7084 24C65.9484 24 64.4284 23.67 63.1484 23.01C61.8884 22.33 60.9184 21.4 60.2384 20.22C59.5584 19.04 59.2184 17.67 59.2184 16.11C59.2184 13.95 59.6884 12.06 60.6284 10.44C61.5884 8.8 62.8984 7.53 64.5584 6.63C66.2184 5.71 68.1084 5.25 70.2284 5.25C70.5684 5.25 70.9084 5.27 71.2484 5.31C71.6084 5.33 71.9884 5.39 72.3884 5.49C72.4884 5.77 72.5684 6.11 72.6284 6.51C72.6884 6.89 72.7284 7.3 72.7484 7.74C72.9284 7.68 73.1184 7.63 73.3184 7.59C73.5384 7.55 73.7684 7.53 74.0084 7.53C74.7084 7.53 75.3684 7.72 75.9884 8.1C76.6084 8.46 77.1184 9.03 77.5184 9.81C77.9184 10.59 78.1184 11.58 78.1184 12.78C78.1184 14.56 77.8184 16.15 77.2184 17.55C76.6384 18.93 75.8484 20.1 74.8484 21.06C73.8484 22.02 72.7284 22.75 71.4884 23.25C70.2684 23.75 69.0084 24 67.7084 24ZM68.6384 20.31C69.0984 20.31 69.5784 20.2 70.0784 19.98C70.5784 19.76 71.0684 19.36 71.5484 18.78C72.0284 18.2 72.4284 17.38 72.7484 16.32C71.8884 15.78 71.2684 15.12 70.8884 14.34C70.5084 13.54 70.3184 12.66 70.3184 11.7C70.3184 11.42 70.3684 11.06 70.4684 10.62C70.5684 10.18 70.7384 9.73 70.9784 9.27C71.2384 8.81 71.5884 8.43 72.0284 8.13C70.6484 8.41 69.5184 8.83 68.6384 9.39C67.7584 9.95 67.0684 10.6 66.5684 11.34C66.0884 12.06 65.7484 12.81 65.5484 13.59C65.3684 14.35 65.2784 15.08 65.2784 15.78C65.2784 16.58 65.4084 17.33 65.6684 18.03C65.9284 18.71 66.3084 19.26 66.8084 19.68C67.3084 20.1 67.9184 20.31 68.6384 20.31Z" fill="white"/>
</g>
<g filter="url(#filter4_d_31_217)">
<path d="M35.8837 24C35.2237 24 34.5737 23.9 33.9337 23.7C33.3137 23.5 32.7937 23.15 32.3737 22.65C31.9737 22.15 31.7737 21.46 31.7737 20.58C31.7737 20.58 31.7737 20.35 31.7737 19.89C31.7937 19.43 31.8037 18.84 31.8037 18.12C31.8237 17.4 31.8337 16.64 31.8337 15.84C31.8337 15.02 31.8337 14.24 31.8337 13.5C31.8537 12.76 31.8637 12.16 31.8637 11.7C31.8637 10.34 31.7037 9.26 31.3837 8.46C31.0837 7.64 30.7037 7 30.2437 6.54C31.2837 5.68 32.4237 5.25 33.6637 5.25C34.7837 5.25 35.6337 5.58 36.2137 6.24C36.7937 6.88 37.1837 7.76 37.3837 8.88C37.6037 10 37.7137 11.25 37.7137 12.63C37.7137 13.37 37.7037 14.21 37.6837 15.15C37.6837 16.07 37.6737 16.99 37.6537 17.91C37.6337 18.81 37.6037 19.62 37.5637 20.34H38.5837C39.2837 19.12 39.9037 17.96 40.4437 16.86C40.9837 15.76 41.3637 14.68 41.5837 13.62C41.5837 12.94 41.5137 12.18 41.3737 11.34C41.2537 10.5 41.0937 9.71 40.8937 8.97C40.6937 8.21 40.4837 7.65 40.2637 7.29C40.5637 6.89 41.0237 6.57 41.6437 6.33C42.2637 6.09 42.9037 5.97 43.5637 5.97C44.0837 5.97 44.5837 6.06 45.0637 6.24C45.5637 6.42 45.9737 6.71 46.2937 7.11C46.6337 7.51 46.8037 8.04 46.8037 8.7C46.8037 9.32 46.6737 9.98 46.4137 10.68C46.1537 11.36 45.8637 12.18 45.5437 13.14L45.4237 20.34H46.4437C46.9037 19.46 47.3937 18.46 47.9137 17.34C48.4337 16.2 48.9237 15.04 49.3837 13.86C49.8637 12.68 50.2537 11.57 50.5537 10.53C50.8537 9.47 51.0037 8.59 51.0037 7.89C51.0037 7.61 50.9737 7.36 50.9137 7.14C50.8737 6.92 50.8137 6.72 50.7337 6.54C51.4337 6.1 52.1237 5.78 52.8037 5.58C53.4837 5.36 54.1037 5.25 54.6637 5.25C55.5437 5.25 56.1737 5.51 56.5537 6.03C56.9337 6.55 57.1237 7.23 57.1237 8.07C57.1237 8.79 56.9637 9.65 56.6437 10.65C56.3437 11.65 55.9637 12.7 55.5037 13.8C55.0437 14.88 54.5837 15.92 54.1237 16.92C53.6637 17.9 53.2937 18.74 53.0137 19.44L53.4337 21.18C53.1337 21.42 52.6937 21.7 52.1137 22.02C51.5337 22.34 50.8737 22.65 50.1337 22.95C49.4137 23.25 48.6537 23.5 47.8537 23.7C47.0737 23.9 46.3237 24 45.6037 24C44.7237 24 43.9337 23.8 43.2337 23.4C42.5537 23 42.0937 22.29 41.8537 21.27C40.9737 22.13 40.0537 22.8 39.0937 23.28C38.1537 23.76 37.0837 24 35.8837 24Z" fill="white"/>
</g>
<g filter="url(#filter5_d_31_217)">
<path d="M6.21 27.93C4.25 27.93 2.72 27.63 1.62 27.03C0.54 26.45 0 25.61 0 24.51C0 23.57 0.35 22.85 1.05 22.35C1.77 21.83 2.57 21.57 3.45 21.57C4.11 21.57 4.81 21.78 5.55 22.2C6.31 22.6 6.94 23.24 7.44 24.12C8.04 23.96 8.62 23.67 9.18 23.25C9.74 22.81 10.2 22.29 10.56 21.69C10.92 21.09 11.1 20.47 11.1 19.83C11.1 19.41 11.01 19 10.83 18.6C10.67 18.18 10.39 17.78 9.99 17.4C9.57 17.64 9.01 17.88 8.31 18.12C7.61 18.34 6.92 18.45 6.24 18.45C5.58 18.45 5.01 18.29 4.53 17.97C4.07 17.65 3.84 17.07 3.84 16.23C3.84 15.45 4.19 14.76 4.89 14.16C5.61 13.56 6.76 13.26 8.34 13.26C8.54 13.26 8.74 13.26 8.94 13.26C9.16 13.26 9.38 13.28 9.6 13.32C10.14 12.9 10.56 12.36 10.86 11.7C11.18 11.04 11.34 10.39 11.34 9.75C11.34 9.07 11.14 8.49 10.74 8.01C10.34 7.51 9.7 7.26 8.82 7.26C8.54 7.26 8.17 7.37 7.71 7.59C7.27 7.79 6.83 8.14 6.39 8.64C5.95 9.14 5.6 9.85 5.34 10.77C4.2 10.71 3.37 10.41 2.85 9.87C2.33 9.31 2.07 8.64 2.07 7.86C2.07 6.98 2.36 6.11 2.94 5.25C3.52 4.39 4.44 3.68 5.7 3.12C6.98 2.54 8.65 2.25 10.71 2.25C12.11 2.25 13.27 2.42 14.19 2.76C15.11 3.1 15.83 3.54 16.35 4.08C16.87 4.6 17.23 5.17 17.43 5.79C17.65 6.41 17.76 7 17.76 7.56C17.76 8.8 17.42 10.02 16.74 11.22C16.08 12.42 15.14 13.6 13.92 14.76C16.5 15.98 17.79 17.78 17.79 20.16C17.79 21.52 17.32 22.79 16.38 23.97C15.44 25.17 14.1 26.13 12.36 26.85C10.64 27.57 8.59 27.93 6.21 27.93Z" fill="white"/>
</g>
<defs>
<filter id="filter0_d_31_217" x="117.926" y="5.25" width="19.89" height="21.75" filterUnits="userSpaceOnUse" color-interpolation-filters="sRGB">
<feFlood flood-opacity="0" result="BackgroundImageFix"/>
<feColorMatrix in="SourceAlpha" type="matrix" values="0 0 0 0 0 0 0 0 0 0 0 0 0 0 0 0 0 0 127 0" result="hardAlpha"/>
<feOffset dx="3" dy="3"/>
<feComposite in2="hardAlpha" operator="out"/>
<feColorMatrix type="matrix" values="0 0 0 0 0 0 0 0 0 0 0 0 0 0 0 0 0 0 0.25 0"/>
<feBlend mode="normal" in2="BackgroundImageFix" result="effect1_dropShadow_31_217"/>
<feBlend mode="normal" in="SourceGraphic" in2="effect1_dropShadow_31_217" result="shape"/>
</filter>
<filter id="filter1_d_31_217" x="95.6344" y="0" width="23.34" height="27" filterUnits="userSpaceOnUse" color-interpolation-filters="sRGB">
<feFlood flood-opacity="0" result="BackgroundImageFix"/>
<feColorMatrix in="SourceAlpha" type="matrix" values="0 0 0 0 0 0 0 0 0 0 0 0 0 0 0 0 0 0 127 0" result="hardAlpha"/>
<feOffset dx="3" dy="3"/>
<feComposite in2="hardAlpha" operator="out"/>
<feColorMatrix type="matrix" values="0 0 0 0 0 0 0 0 0 0 0 0 0 0 0 0 0 0 0.25 0"/>
<feBlend mode="normal" in2="BackgroundImageFix" result="effect1_dropShadow_31_217"/>
<feBlend mode="normal" in="SourceGraphic" in2="effect1_dropShadow_31_217" result="shape"/>
</filter>
<filter id="filter2_d_31_217" x="80.9637" y="5.25" width="17.82" height="21.75" filterUnits="userSpaceOnUse" color-interpolation-filters="sRGB">
<feFlood flood-opacity="0" result="BackgroundImageFix"/>
<feColorMatrix in="SourceAlpha" type="matrix" values="0 0 0 0 0 0 0 0 0 0 0 0 0 0 0 0 0 0 127 0" result="hardAlpha"/>
<feOffset dx="3" dy="3"/>
<feComposite in2="hardAlpha" operator="out"/>
<feColorMatrix type="matrix" values="0 0 0 0 0 0 0 0 0 0 0 0 0 0 0 0 0 0 0.25 0"/>
<feBlend mode="normal" in2="BackgroundImageFix" result="effect1_dropShadow_31_217"/>
<feBlend mode="normal" in="SourceGraphic" in2="effect1_dropShadow_31_217" result="shape"/>
</filter>
<filter id="filter3_d_31_217" x="59.2184" y="5.25" width="21.9" height="21.75" filterUnits="userSpaceOnUse" color-interpolation-filters="sRGB">
<feFlood flood-opacity="0" result="BackgroundImageFix"/>
<feColorMatrix in="SourceAlpha" type="matrix" values="0 0 0 0 0 0 0 0 0 0 0 0 0 0 0 0 0 0 127 0" result="hardAlpha"/>
<feOffset dx="3" dy="3"/>
<feComposite in2="hardAlpha" operator="out"/>
<feColorMatrix type="matrix" values="0 0 0 0 0 0 0 0 0 0 0 0 0 0 0 0 0 0 0.25 0"/>
<feBlend mode="normal" in2="BackgroundImageFix" result="effect1_dropShadow_31_217"/>
<feBlend mode="normal" in="SourceGraphic" in2="effect1_dropShadow_31_217" result="shape"/>
</filter>
<filter id="filter4_d_31_217" x="30.2437" y="5.25" width="29.88" height="21.75" filterUnits="userSpaceOnUse" color-interpolation-filters="sRGB">
<feFlood flood-opacity="0" result="BackgroundImageFix"/>
<feColorMatrix in="SourceAlpha" type="matrix" values="0 0 0 0 0 0 0 0 0 0 0 0 0 0 0 0 0 0 127 0" result="hardAlpha"/>
<feOffset dx="3" dy="3"/>
<feComposite in2="hardAlpha" operator="out"/>
<feColorMatrix type="matrix" values="0 0 0 0 0 0 0 0 0 0 0 0 0 0 0 0 0 0 0.25 0"/>
<feBlend mode="normal" in2="BackgroundImageFix" result="effect1_dropShadow_31_217"/>
<feBlend mode="normal" in="SourceGraphic" in2="effect1_dropShadow_31_217" result="shape"/>
</filter>
<filter id="filter5_d_31_217" x="0" y="2.25" width="20.79" height="28.6799" filterUnits="userSpaceOnUse" color-interpolation-filters="sRGB">
<feFlood flood-opacity="0" result="BackgroundImageFix"/>
<feColorMatrix in="SourceAlpha" type="matrix" values="0 0 0 0 0 0 0 0 0 0 0 0 0 0 0 0 0 0 127 0" result="hardAlpha"/>
<feOffset dx="3" dy="3"/>
<feComposite in2="hardAlpha" operator="out"/>
<feColorMatrix type="matrix" values="0 0 0 0 0 0 0 0 0 0 0 0 0 0 0 0 0 0 0.25 0"/>
<feBlend mode="normal" in2="BackgroundImageFix" result="effect1_dropShadow_31_217"/>
<feBlend mode="normal" in="SourceGraphic" in2="effect1_dropShadow_31_217" result="shape"/>
</filter>
</defs>
</svg>
