<svg width="255" height="21" viewBox="0 0 255 21" fill="none" xmlns="http://www.w3.org/2000/svg">
<mask id="path-1-outside-1_32_225" maskUnits="userSpaceOnUse" x="0.941406" y="0.59375" width="254" height="21" fill="black">
<rect fill="white" x="0.941406" y="0.59375" width="254" height="21"/>
<path fill-rule="evenodd" clip-rule="evenodd" d="M24.0352 2.59375H11.1445C8.87891 2.59375 6.94531 3.39453 5.34375 4.99609C3.74219 6.59766 2.94141 8.53125 2.94141 10.7969C2.94141 13.0625 3.74219 14.9961 5.34375 16.5977C6.94531 18.1992 8.87891 19 11.1445 19H24.0352V14.3125H11.1445C10.1758 14.3125 9.34766 13.9688 8.66016 13.2812C7.97266 12.5938 7.62891 11.7656 7.62891 10.7969C7.62891 9.82812 7.97266 9 8.66016 8.3125C9.34766 7.625 10.1758 7.28125 11.1445 7.28125H24.0352V2.59375ZM33.4102 7.28125C32.4414 7.28125 31.6133 7.625 30.9258 8.3125C30.2383 9 29.8945 9.82812 29.8945 10.7969C29.8945 11.7656 30.2383 12.5938 30.9258 13.2812C31.6133 13.9688 32.4414 14.3125 33.4102 14.3125H40.4414C41.4102 14.3125 42.2383 13.9688 42.9258 13.2812C43.6133 12.5938 43.957 11.7656 43.957 10.7969C43.957 9.82812 43.6133 9 42.9258 8.3125C42.2383 7.625 41.4102 7.28125 40.4414 7.28125H33.4102ZM33.4102 19C31.1445 19 29.2109 18.1992 27.6094 16.5977C26.0078 14.9961 25.207 13.0625 25.207 10.7969C25.207 8.53125 26.0078 6.59766 27.6094 4.99609C29.2109 3.39453 31.1445 2.59375 33.4102 2.59375H40.4414C42.707 2.59375 44.6406 3.39453 46.2422 4.99609C47.8438 6.59766 48.6445 8.53125 48.6445 10.7969C48.6445 13.0625 47.8438 14.9961 46.2422 16.5977C44.6406 18.1992 42.707 19 40.4414 19H33.4102ZM55.582 19V7.84375L65.7422 19H71.9883V2.59375H67.3008V13.75L57.1406 2.59375H50.8945V19H55.582ZM97.8633 2.59375V7.28125H81.457V8.45312H94.3477V13.1406H81.457V19H76.7695V13.1406H74.4258V8.45312H76.7695V2.59375H97.8633ZM121.254 7.28125V2.59375H100.16V8.45312H97.8164V13.1406H100.16V19H121.254V14.3125H104.848V13.1406H117.738V8.45312H104.848V7.28125H121.254ZM146.051 2.59375V7.28125H129.059C128.895 7.28125 128.754 7.33984 128.637 7.45703C128.527 7.56641 128.473 7.70312 128.473 7.86719C128.473 8.03125 128.527 8.17188 128.637 8.28906C128.754 8.39844 128.895 8.45312 129.059 8.45312H140.777C142.23 8.45312 143.473 8.96875 144.504 10C145.535 11.0312 146.051 12.2734 146.051 13.7266C146.051 15.1797 145.535 16.4219 144.504 17.4531C143.473 18.4844 142.23 19 140.777 19H123.785V14.3125H140.777C140.941 14.3125 141.078 14.2578 141.188 14.1484C141.305 14.0312 141.363 13.8906 141.363 13.7266C141.363 13.5625 141.305 13.4258 141.188 13.3164C141.078 13.1992 140.941 13.1406 140.777 13.1406H129.059C127.605 13.1406 126.363 12.625 125.332 11.5938C124.301 10.5625 123.785 9.32031 123.785 7.86719C123.785 6.41406 124.301 5.17188 125.332 4.14062C126.363 3.10938 127.605 2.59375 129.059 2.59375H146.051ZM170.449 7.28125V2.59375H153.457C152.004 2.59375 150.762 3.10938 149.73 4.14062C148.699 5.17188 148.184 6.41406 148.184 7.86719C148.184 9.32031 148.699 10.5625 149.73 11.5938C150.762 12.625 152.004 13.1406 153.457 13.1406H165.176C165.34 13.1406 165.477 13.1992 165.586 13.3164C165.703 13.4258 165.762 13.5625 165.762 13.7266C165.762 13.8906 165.703 14.0312 165.586 14.1484C165.477 14.2578 165.34 14.3125 165.176 14.3125H148.184V19H165.176C166.629 19 167.871 18.4844 168.902 17.4531C169.934 16.4219 170.449 15.1797 170.449 13.7266C170.449 12.2734 169.934 11.0312 168.902 10C167.871 8.96875 166.629 8.45312 165.176 8.45312H153.457C153.293 8.45312 153.152 8.39844 153.035 8.28906C152.926 8.17188 152.871 8.03125 152.871 7.86719C152.871 7.70312 152.926 7.56641 153.035 7.45703C153.152 7.33984 153.293 7.28125 153.457 7.28125H170.449ZM178.184 19H173.496V2.59375H178.184V19ZM186.27 8.3125C186.957 7.625 187.785 7.28125 188.754 7.28125H195.785C196.754 7.28125 197.582 7.625 198.27 8.3125C198.957 9 199.301 9.82812 199.301 10.7969C199.301 11.7656 198.957 12.5938 198.27 13.2812C197.582 13.9688 196.754 14.3125 195.785 14.3125H188.754C187.785 14.3125 186.957 13.9688 186.27 13.2812C185.582 12.5938 185.238 11.7656 185.238 10.7969C185.238 9.82812 185.582 9 186.27 8.3125ZM182.953 16.5977C184.555 18.1992 186.488 19 188.754 19H195.785C198.051 19 199.984 18.1992 201.586 16.5977C203.188 14.9961 203.988 13.0625 203.988 10.7969C203.988 8.53125 203.188 6.59766 201.586 4.99609C199.984 3.39453 198.051 2.59375 195.785 2.59375H188.754C186.488 2.59375 184.555 3.39453 182.953 4.99609C181.352 6.59766 180.551 8.53125 180.551 10.7969C180.551 13.0625 181.352 14.9961 182.953 16.5977ZM210.926 7.84375V19H206.238V2.59375H212.484L222.645 13.75V2.59375H227.332V19H221.086L210.926 7.84375ZM252.715 2.59375V7.28125H235.723C235.559 7.28125 235.418 7.33984 235.301 7.45703C235.191 7.56641 235.137 7.70312 235.137 7.86719C235.137 8.03125 235.191 8.17188 235.301 8.28906C235.418 8.39844 235.559 8.45312 235.723 8.45312H247.441C248.895 8.45312 250.137 8.96875 251.168 10C252.199 11.0312 252.715 12.2734 252.715 13.7266C252.715 15.1797 252.199 16.4219 251.168 17.4531C250.137 18.4844 248.895 19 247.441 19H230.449V14.3125H247.441C247.605 14.3125 247.742 14.2578 247.852 14.1484C247.969 14.0312 248.027 13.8906 248.027 13.7266C248.027 13.5625 247.969 13.4258 247.852 13.3164C247.742 13.1992 247.605 13.1406 247.441 13.1406H235.723C234.27 13.1406 233.027 12.625 231.996 11.5938C230.965 10.5625 230.449 9.32031 230.449 7.86719C230.449 6.41406 230.965 5.17188 231.996 4.14062C233.027 3.10938 234.27 2.59375 235.723 2.59375H252.715Z"/>
</mask>
<path fill-rule="evenodd" clip-rule="evenodd" d="M24.0352 2.59375H11.1445C8.87891 2.59375 6.94531 3.39453 5.34375 4.99609C3.74219 6.59766 2.94141 8.53125 2.94141 10.7969C2.94141 13.0625 3.74219 14.9961 5.34375 16.5977C6.94531 18.1992 8.87891 19 11.1445 19H24.0352V14.3125H11.1445C10.1758 14.3125 9.34766 13.9688 8.66016 13.2812C7.97266 12.5938 7.62891 11.7656 7.62891 10.7969C7.62891 9.82812 7.97266 9 8.66016 8.3125C9.34766 7.625 10.1758 7.28125 11.1445 7.28125H24.0352V2.59375ZM33.4102 7.28125C32.4414 7.28125 31.6133 7.625 30.9258 8.3125C30.2383 9 29.8945 9.82812 29.8945 10.7969C29.8945 11.7656 30.2383 12.5938 30.9258 13.2812C31.6133 13.9688 32.4414 14.3125 33.4102 14.3125H40.4414C41.4102 14.3125 42.2383 13.9688 42.9258 13.2812C43.6133 12.5938 43.957 11.7656 43.957 10.7969C43.957 9.82812 43.6133 9 42.9258 8.3125C42.2383 7.625 41.4102 7.28125 40.4414 7.28125H33.4102ZM33.4102 19C31.1445 19 29.2109 18.1992 27.6094 16.5977C26.0078 14.9961 25.207 13.0625 25.207 10.7969C25.207 8.53125 26.0078 6.59766 27.6094 4.99609C29.2109 3.39453 31.1445 2.59375 33.4102 2.59375H40.4414C42.707 2.59375 44.6406 3.39453 46.2422 4.99609C47.8438 6.59766 48.6445 8.53125 48.6445 10.7969C48.6445 13.0625 47.8438 14.9961 46.2422 16.5977C44.6406 18.1992 42.707 19 40.4414 19H33.4102ZM55.582 19V7.84375L65.7422 19H71.9883V2.59375H67.3008V13.75L57.1406 2.59375H50.8945V19H55.582ZM97.8633 2.59375V7.28125H81.457V8.45312H94.3477V13.1406H81.457V19H76.7695V13.1406H74.4258V8.45312H76.7695V2.59375H97.8633ZM121.254 7.28125V2.59375H100.16V8.45312H97.8164V13.1406H100.16V19H121.254V14.3125H104.848V13.1406H117.738V8.45312H104.848V7.28125H121.254ZM146.051 2.59375V7.28125H129.059C128.895 7.28125 128.754 7.33984 128.637 7.45703C128.527 7.56641 128.473 7.70312 128.473 7.86719C128.473 8.03125 128.527 8.17188 128.637 8.28906C128.754 8.39844 128.895 8.45312 129.059 8.45312H140.777C142.23 8.45312 143.473 8.96875 144.504 10C145.535 11.0312 146.051 12.2734 146.051 13.7266C146.051 15.1797 145.535 16.4219 144.504 17.4531C143.473 18.4844 142.23 19 140.777 19H123.785V14.3125H140.777C140.941 14.3125 141.078 14.2578 141.188 14.1484C141.305 14.0312 141.363 13.8906 141.363 13.7266C141.363 13.5625 141.305 13.4258 141.188 13.3164C141.078 13.1992 140.941 13.1406 140.777 13.1406H129.059C127.605 13.1406 126.363 12.625 125.332 11.5938C124.301 10.5625 123.785 9.32031 123.785 7.86719C123.785 6.41406 124.301 5.17188 125.332 4.14062C126.363 3.10938 127.605 2.59375 129.059 2.59375H146.051ZM170.449 7.28125V2.59375H153.457C152.004 2.59375 150.762 3.10938 149.73 4.14062C148.699 5.17188 148.184 6.41406 148.184 7.86719C148.184 9.32031 148.699 10.5625 149.73 11.5938C150.762 12.625 152.004 13.1406 153.457 13.1406H165.176C165.34 13.1406 165.477 13.1992 165.586 13.3164C165.703 13.4258 165.762 13.5625 165.762 13.7266C165.762 13.8906 165.703 14.0312 165.586 14.1484C165.477 14.2578 165.34 14.3125 165.176 14.3125H148.184V19H165.176C166.629 19 167.871 18.4844 168.902 17.4531C169.934 16.4219 170.449 15.1797 170.449 13.7266C170.449 12.2734 169.934 11.0312 168.902 10C167.871 8.96875 166.629 8.45312 165.176 8.45312H153.457C153.293 8.45312 153.152 8.39844 153.035 8.28906C152.926 8.17188 152.871 8.03125 152.871 7.86719C152.871 7.70312 152.926 7.56641 153.035 7.45703C153.152 7.33984 153.293 7.28125 153.457 7.28125H170.449ZM178.184 19H173.496V2.59375H178.184V19ZM186.27 8.3125C186.957 7.625 187.785 7.28125 188.754 7.28125H195.785C196.754 7.28125 197.582 7.625 198.27 8.3125C198.957 9 199.301 9.82812 199.301 10.7969C199.301 11.7656 198.957 12.5938 198.27 13.2812C197.582 13.9688 196.754 14.3125 195.785 14.3125H188.754C187.785 14.3125 186.957 13.9688 186.27 13.2812C185.582 12.5938 185.238 11.7656 185.238 10.7969C185.238 9.82812 185.582 9 186.27 8.3125ZM182.953 16.5977C184.555 18.1992 186.488 19 188.754 19H195.785C198.051 19 199.984 18.1992 201.586 16.5977C203.188 14.9961 203.988 13.0625 203.988 10.7969C203.988 8.53125 203.188 6.59766 201.586 4.99609C199.984 3.39453 198.051 2.59375 195.785 2.59375H188.754C186.488 2.59375 184.555 3.39453 182.953 4.99609C181.352 6.59766 180.551 8.53125 180.551 10.7969C180.551 13.0625 181.352 14.9961 182.953 16.5977ZM210.926 7.84375V19H206.238V2.59375H212.484L222.645 13.75V2.59375H227.332V19H221.086L210.926 7.84375ZM252.715 2.59375V7.28125H235.723C235.559 7.28125 235.418 7.33984 235.301 7.45703C235.191 7.56641 235.137 7.70312 235.137 7.86719C235.137 8.03125 235.191 8.17188 235.301 8.28906C235.418 8.39844 235.559 8.45312 235.723 8.45312H247.441C248.895 8.45312 250.137 8.96875 251.168 10C252.199 11.0312 252.715 12.2734 252.715 13.7266C252.715 15.1797 252.199 16.4219 251.168 17.4531C250.137 18.4844 248.895 19 247.441 19H230.449V14.3125H247.441C247.605 14.3125 247.742 14.2578 247.852 14.1484C247.969 14.0312 248.027 13.8906 248.027 13.7266C248.027 13.5625 247.969 13.4258 247.852 13.3164C247.742 13.1992 247.605 13.1406 247.441 13.1406H235.723C234.27 13.1406 233.027 12.625 231.996 11.5938C230.965 10.5625 230.449 9.32031 230.449 7.86719C230.449 6.41406 230.965 5.17188 231.996 4.14062C233.027 3.10938 234.27 2.59375 235.723 2.59375H252.715Z" fill="white"/>
<path d="M24.0352 2.59375H26.0352C26.0352 1.48918 25.1397 0.59375 24.0352 0.59375V2.59375ZM24.0352 19V21C25.1397 21 26.0352 20.1046 26.0352 19H24.0352ZM24.0352 14.3125H26.0352C26.0352 13.2079 25.1397 12.3125 24.0352 12.3125V14.3125ZM24.0352 7.28125V9.28125C25.1397 9.28125 26.0352 8.38582 26.0352 7.28125H24.0352ZM55.582 7.84375L57.0607 6.49709C56.5046 5.88643 55.6303 5.68045 54.86 5.97863C54.0898 6.2768 53.582 7.0178 53.582 7.84375H55.582ZM55.582 19V21C56.6866 21 57.582 20.1046 57.582 19H55.582ZM65.7422 19L64.2635 20.3467C64.6425 20.7628 65.1793 21 65.7422 21V19ZM71.9883 19V21C73.0928 21 73.9883 20.1046 73.9883 19H71.9883ZM71.9883 2.59375H73.9883C73.9883 1.48918 73.0928 0.59375 71.9883 0.59375V2.59375ZM67.3008 2.59375V0.59375C66.1962 0.59375 65.3008 1.48918 65.3008 2.59375L67.3008 2.59375ZM67.3008 13.75L65.8221 15.0967C66.3782 15.7073 67.2525 15.9133 68.0228 15.6151C68.7931 15.3169 69.3008 14.576 69.3008 13.75H67.3008ZM57.1406 2.59375L58.6193 1.24709C58.2403 0.830936 57.7035 0.59375 57.1406 0.59375V2.59375ZM50.8945 2.59375V0.59375C49.79 0.59375 48.8945 1.48918 48.8945 2.59375L50.8945 2.59375ZM50.8945 19H48.8945C48.8945 20.1046 49.79 21 50.8945 21V19ZM97.8633 7.28125V9.28125C98.9678 9.28125 99.8633 8.38582 99.8633 7.28125H97.8633ZM97.8633 2.59375H99.8633C99.8633 1.48918 98.9678 0.59375 97.8633 0.59375V2.59375ZM81.457 7.28125V5.28125C80.3525 5.28125 79.457 6.17668 79.457 7.28125H81.457ZM81.457 8.45312H79.457C79.457 9.55769 80.3525 10.4531 81.457 10.4531V8.45312ZM94.3477 8.45312H96.3477C96.3477 7.34856 95.4522 6.45312 94.3477 6.45312V8.45312ZM94.3477 13.1406V15.1406C95.4522 15.1406 96.3477 14.2452 96.3477 13.1406H94.3477ZM81.457 13.1406V11.1406C80.3525 11.1406 79.457 12.0361 79.457 13.1406H81.457ZM81.457 19V21C82.5616 21 83.457 20.1046 83.457 19H81.457ZM76.7695 19H74.7695C74.7695 20.1046 75.665 21 76.7695 21V19ZM76.7695 13.1406H78.7695C78.7695 12.0361 77.8741 11.1406 76.7695 11.1406V13.1406ZM74.4258 13.1406H72.4258C72.4258 14.2452 73.3212 15.1406 74.4258 15.1406V13.1406ZM74.4258 8.45312V6.45312C73.3212 6.45312 72.4258 7.34856 72.4258 8.45312H74.4258ZM76.7695 8.45312V10.4531C77.8741 10.4531 78.7695 9.55769 78.7695 8.45312H76.7695ZM76.7695 2.59375V0.59375C75.665 0.59375 74.7695 1.48918 74.7695 2.59375L76.7695 2.59375ZM121.254 2.59375H123.254C123.254 1.48918 122.358 0.59375 121.254 0.59375V2.59375ZM121.254 7.28125V9.28125C122.358 9.28125 123.254 8.38582 123.254 7.28125H121.254ZM100.16 2.59375V0.59375C99.0556 0.59375 98.1602 1.48918 98.1602 2.59375L100.16 2.59375ZM100.16 8.45312V10.4531C101.265 10.4531 102.16 9.55769 102.16 8.45312H100.16ZM97.8164 8.45312V6.45312C96.7118 6.45312 95.8164 7.34856 95.8164 8.45312H97.8164ZM97.8164 13.1406H95.8164C95.8164 14.2452 96.7118 15.1406 97.8164 15.1406V13.1406ZM100.16 13.1406H102.16C102.16 12.0361 101.265 11.1406 100.16 11.1406V13.1406ZM100.16 19H98.1602C98.1602 20.1046 99.0556 21 100.16 21V19ZM121.254 19V21C122.358 21 123.254 20.1046 123.254 19H121.254ZM121.254 14.3125H123.254C123.254 13.2079 122.358 12.3125 121.254 12.3125V14.3125ZM104.848 14.3125H102.848C102.848 15.4171 103.743 16.3125 104.848 16.3125V14.3125ZM104.848 13.1406V11.1406C103.743 11.1406 102.848 12.0361 102.848 13.1406H104.848ZM117.738 13.1406V15.1406C118.843 15.1406 119.738 14.2452 119.738 13.1406H117.738ZM117.738 8.45312H119.738C119.738 7.34856 118.843 6.45312 117.738 6.45312V8.45312ZM104.848 8.45312H102.848C102.848 9.55769 103.743 10.4531 104.848 10.4531V8.45312ZM104.848 7.28125V5.28125C103.743 5.28125 102.848 6.17668 102.848 7.28125H104.848ZM146.051 7.28125V9.28125C147.155 9.28125 148.051 8.38582 148.051 7.28125H146.051ZM146.051 2.59375H148.051C148.051 1.48918 147.155 0.59375 146.051 0.59375V2.59375ZM128.637 8.28906L127.175 9.6537C127.206 9.6873 127.238 9.71981 127.272 9.75117L128.637 8.28906ZM123.785 19H121.785C121.785 20.1046 122.681 21 123.785 21V19ZM123.785 14.3125V12.3125C122.681 12.3125 121.785 13.2079 121.785 14.3125H123.785ZM141.188 13.3164L139.725 14.681C139.757 14.7146 139.789 14.7472 139.823 14.7785L141.188 13.3164ZM170.449 2.59375H172.449C172.449 1.48918 171.554 0.59375 170.449 0.59375V2.59375ZM170.449 7.28125V9.28125C171.554 9.28125 172.449 8.38582 172.449 7.28125H170.449ZM165.586 13.3164L164.124 14.681C164.155 14.7146 164.188 14.7472 164.221 14.7785L165.586 13.3164ZM148.184 14.3125V12.3125C147.079 12.3125 146.184 13.2079 146.184 14.3125H148.184ZM148.184 19H146.184C146.184 20.1046 147.079 21 148.184 21V19ZM153.035 8.28906L151.573 9.6537C151.604 9.6873 151.637 9.71981 151.671 9.75117L153.035 8.28906ZM173.496 19H171.496C171.496 20.1046 172.392 21 173.496 21V19ZM178.184 19V21C179.288 21 180.184 20.1046 180.184 19H178.184ZM173.496 2.59375V0.59375C172.392 0.59375 171.496 1.48918 171.496 2.59375L173.496 2.59375ZM178.184 2.59375H180.184C180.184 1.48918 179.288 0.59375 178.184 0.59375V2.59375ZM210.926 19V21C212.03 21 212.926 20.1046 212.926 19H210.926ZM210.926 7.84375L212.404 6.49709C211.848 5.88643 210.974 5.68045 210.204 5.97863C209.434 6.2768 208.926 7.0178 208.926 7.84375H210.926ZM206.238 19H204.238C204.238 20.1046 205.134 21 206.238 21V19ZM206.238 2.59375V0.59375C205.134 0.59375 204.238 1.48918 204.238 2.59375L206.238 2.59375ZM212.484 2.59375L213.963 1.24709C213.584 0.830936 213.047 0.59375 212.484 0.59375V2.59375ZM222.645 13.75L221.166 15.0967C221.722 15.7073 222.596 15.9133 223.367 15.6151C224.137 15.3169 224.645 14.576 224.645 13.75H222.645ZM222.645 2.59375V0.59375C221.54 0.59375 220.645 1.48918 220.645 2.59375L222.645 2.59375ZM227.332 2.59375H229.332C229.332 1.48918 228.437 0.59375 227.332 0.59375V2.59375ZM227.332 19V21C228.437 21 229.332 20.1046 229.332 19H227.332ZM221.086 19L219.607 20.3467C219.986 20.7628 220.523 21 221.086 21V19ZM252.715 7.28125V9.28125C253.819 9.28125 254.715 8.38582 254.715 7.28125H252.715ZM252.715 2.59375H254.715C254.715 1.48918 253.819 0.59375 252.715 0.59375V2.59375ZM235.301 8.28906L233.839 9.6537C233.87 9.6873 233.903 9.71981 233.936 9.75117L235.301 8.28906ZM230.449 19H228.449C228.449 20.1046 229.345 21 230.449 21V19ZM230.449 14.3125V12.3125C229.345 12.3125 228.449 13.2079 228.449 14.3125H230.449ZM247.852 13.3164L246.389 14.681C246.421 14.7146 246.453 14.7472 246.487 14.7785L247.852 13.3164ZM11.1445 4.59375H24.0352V0.59375H11.1445V4.59375ZM6.75796 6.41031C7.98433 5.18394 9.40916 4.59375 11.1445 4.59375V0.59375C8.34865 0.59375 5.9063 1.60512 3.92954 3.58188L6.75796 6.41031ZM4.94141 10.7969C4.94141 9.06151 5.5316 7.63667 6.75796 6.41031L3.92954 3.58188C1.95278 5.55864 0.941406 8.00099 0.941406 10.7969H4.94141ZM6.75796 15.1834C5.5316 13.9571 4.94141 12.5322 4.94141 10.7969H0.941406C0.941406 13.5928 1.95278 16.0351 3.92954 18.0119L6.75796 15.1834ZM11.1445 17C9.40916 17 7.98433 16.4098 6.75796 15.1834L3.92954 18.0119C5.9063 19.9886 8.34865 21 11.1445 21V17ZM24.0352 17H11.1445V21H24.0352V17ZM22.0352 14.3125V19H26.0352V14.3125H22.0352ZM11.1445 16.3125H24.0352V12.3125H11.1445V16.3125ZM7.24594 14.6955C8.30698 15.7565 9.64318 16.3125 11.1445 16.3125V12.3125C10.7084 12.3125 10.3883 12.181 10.0744 11.867L7.24594 14.6955ZM5.62891 10.7969C5.62891 12.2982 6.18491 13.6344 7.24594 14.6955L10.0744 11.867C9.76041 11.5531 9.62891 11.233 9.62891 10.7969H5.62891ZM7.24594 6.89829C6.18491 7.95932 5.62891 9.29552 5.62891 10.7969H9.62891C9.62891 10.3607 9.76041 10.0407 10.0744 9.72671L7.24594 6.89829ZM11.1445 5.28125C9.64318 5.28125 8.30698 5.83725 7.24594 6.89829L10.0744 9.72671C10.3883 9.41275 10.7084 9.28125 11.1445 9.28125V5.28125ZM24.0352 5.28125H11.1445V9.28125H24.0352V5.28125ZM22.0352 2.59375V7.28125H26.0352V2.59375H22.0352ZM32.34 9.72671C32.654 9.41275 32.974 9.28125 33.4102 9.28125V5.28125C31.9088 5.28125 30.5726 5.83725 29.5116 6.89829L32.34 9.72671ZM31.8945 10.7969C31.8945 10.3607 32.026 10.0407 32.34 9.72671L29.5116 6.89829C28.4505 7.95932 27.8945 9.29552 27.8945 10.7969H31.8945ZM32.34 11.867C32.026 11.5531 31.8945 11.233 31.8945 10.7969H27.8945C27.8945 12.2982 28.4505 13.6344 29.5116 14.6955L32.34 11.867ZM33.4102 12.3125C32.974 12.3125 32.654 12.181 32.34 11.867L29.5116 14.6955C30.5726 15.7565 31.9088 16.3125 33.4102 16.3125V12.3125ZM40.4414 12.3125H33.4102V16.3125H40.4414V12.3125ZM41.5116 11.867C41.1976 12.181 40.8776 12.3125 40.4414 12.3125V16.3125C41.9428 16.3125 43.279 15.7565 44.34 14.6955L41.5116 11.867ZM41.957 10.7969C41.957 11.233 41.8255 11.5531 41.5116 11.867L44.34 14.6955C45.401 13.6344 45.957 12.2982 45.957 10.7969H41.957ZM41.5116 9.72671C41.8255 10.0407 41.957 10.3607 41.957 10.7969H45.957C45.957 9.29552 45.401 7.95932 44.34 6.89829L41.5116 9.72671ZM40.4414 9.28125C40.8776 9.28125 41.1976 9.41275 41.5116 9.72671L44.34 6.89829C43.279 5.83725 41.9428 5.28125 40.4414 5.28125V9.28125ZM33.4102 9.28125H40.4414V5.28125H33.4102V9.28125ZM26.1952 18.0119C28.1719 19.9886 30.6143 21 33.4102 21V17C31.6748 17 30.25 16.4098 29.0236 15.1834L26.1952 18.0119ZM23.207 10.7969C23.207 13.5928 24.2184 16.0351 26.1952 18.0119L29.0236 15.1834C27.7972 13.9571 27.207 12.5322 27.207 10.7969H23.207ZM26.1952 3.58188C24.2184 5.55864 23.207 8.00099 23.207 10.7969H27.207C27.207 9.06151 27.7972 7.63667 29.0236 6.41031L26.1952 3.58188ZM33.4102 0.59375C30.6143 0.59375 28.1719 1.60512 26.1952 3.58188L29.0236 6.41031C30.25 5.18394 31.6748 4.59375 33.4102 4.59375V0.59375ZM40.4414 0.59375H33.4102V4.59375H40.4414V0.59375ZM47.6564 3.58188C45.6796 1.60512 43.2373 0.59375 40.4414 0.59375V4.59375C42.1768 4.59375 43.6016 5.18394 44.828 6.41031L47.6564 3.58188ZM50.6445 10.7969C50.6445 8.00099 49.6332 5.55864 47.6564 3.58188L44.828 6.41031C46.0543 7.63667 46.6445 9.06151 46.6445 10.7969H50.6445ZM47.6564 18.0119C49.6332 16.0351 50.6445 13.5928 50.6445 10.7969H46.6445C46.6445 12.5322 46.0543 13.9571 44.828 15.1834L47.6564 18.0119ZM40.4414 21C43.2373 21 45.6796 19.9886 47.6564 18.0119L44.828 15.1834C43.6016 16.4098 42.1768 17 40.4414 17V21ZM33.4102 21H40.4414V17H33.4102V21ZM53.582 7.84375V19H57.582V7.84375H53.582ZM67.2209 17.6533L57.0607 6.49709L54.1033 9.19041L64.2635 20.3467L67.2209 17.6533ZM71.9883 17H65.7422V21H71.9883V17ZM69.9883 2.59375V19H73.9883V2.59375H69.9883ZM67.3008 4.59375H71.9883V0.59375H67.3008V4.59375ZM69.3008 13.75V2.59375H65.3008V13.75H69.3008ZM55.6619 3.94041L65.8221 15.0967L68.7795 12.4033L58.6193 1.24709L55.6619 3.94041ZM50.8945 4.59375H57.1406V0.59375H50.8945V4.59375ZM52.8945 19V2.59375H48.8945V19H52.8945ZM55.582 17H50.8945V21H55.582V17ZM99.8633 7.28125V2.59375H95.8633V7.28125H99.8633ZM81.457 9.28125H97.8633V5.28125H81.457V9.28125ZM83.457 8.45312V7.28125H79.457V8.45312H83.457ZM94.3477 6.45312H81.457V10.4531H94.3477V6.45312ZM96.3477 13.1406V8.45312H92.3477V13.1406H96.3477ZM81.457 15.1406H94.3477V11.1406H81.457V15.1406ZM83.457 19V13.1406H79.457V19H83.457ZM76.7695 21H81.457V17H76.7695V21ZM74.7695 13.1406V19H78.7695V13.1406H74.7695ZM74.4258 15.1406H76.7695V11.1406H74.4258V15.1406ZM72.4258 8.45312V13.1406H76.4258V8.45312H72.4258ZM76.7695 6.45312H74.4258V10.4531H76.7695V6.45312ZM74.7695 2.59375V8.45312H78.7695V2.59375H74.7695ZM97.8633 0.59375H76.7695V4.59375H97.8633V0.59375ZM119.254 2.59375V7.28125H123.254V2.59375H119.254ZM100.16 4.59375H121.254V0.59375H100.16V4.59375ZM102.16 8.45312V2.59375H98.1602V8.45312H102.16ZM97.8164 10.4531H100.16V6.45312H97.8164V10.4531ZM99.8164 13.1406V8.45312H95.8164V13.1406H99.8164ZM100.16 11.1406H97.8164V15.1406H100.16V11.1406ZM102.16 19V13.1406H98.1602V19H102.16ZM121.254 17H100.16V21H121.254V17ZM119.254 14.3125V19H123.254V14.3125H119.254ZM104.848 16.3125H121.254V12.3125H104.848V16.3125ZM102.848 13.1406V14.3125H106.848V13.1406H102.848ZM117.738 11.1406H104.848V15.1406H117.738V11.1406ZM115.738 8.45312V13.1406H119.738V8.45312H115.738ZM104.848 10.4531H117.738V6.45312H104.848V10.4531ZM102.848 7.28125V8.45312H106.848V7.28125H102.848ZM121.254 5.28125H104.848V9.28125H121.254V5.28125ZM148.051 7.28125V2.59375H144.051V7.28125H148.051ZM129.059 9.28125H146.051V5.28125H129.059V9.28125ZM130.051 8.87124C129.941 8.98104 129.791 9.09165 129.599 9.17135C129.408 9.25121 129.22 9.28125 129.059 9.28125V5.28125C128.358 5.28125 127.71 5.55484 127.223 6.04282L130.051 8.87124ZM130.473 7.86719C130.473 8.01059 130.448 8.19099 130.371 8.38438C130.292 8.58011 130.178 8.74425 130.051 8.87124L127.223 6.04282C126.714 6.55178 126.473 7.2084 126.473 7.86719H130.473ZM130.099 6.92443C130.207 7.03988 130.307 7.18977 130.378 7.37081C130.448 7.55104 130.473 7.72299 130.473 7.86719H126.473C126.473 8.52465 126.711 9.15664 127.175 9.6537L130.099 6.92443ZM129.059 6.45312C129.203 6.45312 129.375 6.47801 129.555 6.5481C129.736 6.6185 129.886 6.71919 130.001 6.82695L127.272 9.75117C127.769 10.2151 128.401 10.4531 129.059 10.4531V6.45312ZM140.777 6.45312H129.059V10.4531H140.777V6.45312ZM145.918 8.58579C144.513 7.181 142.763 6.45312 140.777 6.45312V10.4531C141.698 10.4531 142.432 10.7565 143.09 11.4142L145.918 8.58579ZM148.051 13.7266C148.051 11.7408 147.323 9.99057 145.918 8.58579L143.09 11.4142C143.747 12.0719 144.051 12.806 144.051 13.7266H148.051ZM145.918 18.8673C147.323 17.4626 148.051 15.7123 148.051 13.7266H144.051C144.051 14.6471 143.747 15.3812 143.09 16.0389L145.918 18.8673ZM140.777 21C142.763 21 144.513 20.2721 145.918 18.8673L143.09 16.0389C142.432 16.6966 141.698 17 140.777 17V21ZM123.785 21H140.777V17H123.785V21ZM121.785 14.3125V19H125.785V14.3125H121.785ZM140.777 12.3125H123.785V16.3125H140.777V12.3125ZM139.773 12.7342C139.9 12.6072 140.064 12.4928 140.26 12.4145C140.454 12.3372 140.634 12.3125 140.777 12.3125V16.3125C141.436 16.3125 142.093 16.0716 142.602 15.5627L139.773 12.7342ZM139.363 13.7266C139.363 13.5651 139.393 13.3775 139.473 13.1858C139.553 12.9946 139.663 12.844 139.773 12.7342L142.602 15.5627C143.09 15.0747 143.363 14.4271 143.363 13.7266H139.363ZM139.823 14.7785C139.694 14.6587 139.569 14.495 139.481 14.2888C139.393 14.0837 139.363 13.8874 139.363 13.7266H143.363C143.363 13.0229 143.085 12.3519 142.552 11.8543L139.823 14.7785ZM140.777 15.1406C140.617 15.1406 140.42 15.1108 140.215 15.0229C140.009 14.9345 139.845 14.8095 139.725 14.681L142.65 11.9518C142.152 11.4187 141.481 11.1406 140.777 11.1406V15.1406ZM129.059 15.1406H140.777V11.1406H129.059V15.1406ZM123.918 13.008C125.323 14.4128 127.073 15.1406 129.059 15.1406V11.1406C128.138 11.1406 127.404 10.8372 126.746 10.1795L123.918 13.008ZM121.785 7.86719C121.785 9.85291 122.513 11.6032 123.918 13.008L126.746 10.1795C126.089 9.52182 125.785 8.78771 125.785 7.86719H121.785ZM123.918 2.72641C122.513 4.1312 121.785 5.88146 121.785 7.86719H125.785C125.785 6.94666 126.089 6.21255 126.746 5.55484L123.918 2.72641ZM129.059 0.59375C127.073 0.59375 125.323 1.32162 123.918 2.72641L126.746 5.55484C127.404 4.89713 128.138 4.59375 129.059 4.59375V0.59375ZM146.051 0.59375H129.059V4.59375H146.051V0.59375ZM168.449 2.59375V7.28125H172.449V2.59375H168.449ZM153.457 4.59375H170.449V0.59375H153.457V4.59375ZM151.145 5.55484C151.802 4.89713 152.536 4.59375 153.457 4.59375V0.59375C151.471 0.59375 149.721 1.32162 148.316 2.72641L151.145 5.55484ZM150.184 7.86719C150.184 6.94666 150.487 6.21255 151.145 5.55484L148.316 2.72641C146.911 4.1312 146.184 5.88146 146.184 7.86719H150.184ZM151.145 10.1795C150.487 9.52182 150.184 8.78771 150.184 7.86719H146.184C146.184 9.85291 146.911 11.6032 148.316 13.008L151.145 10.1795ZM153.457 11.1406C152.536 11.1406 151.802 10.8372 151.145 10.1795L148.316 13.008C149.721 14.4128 151.471 15.1406 153.457 15.1406V11.1406ZM165.176 11.1406H153.457V15.1406H165.176V11.1406ZM167.048 11.9518C166.55 11.4187 165.879 11.1406 165.176 11.1406V15.1406C165.015 15.1406 164.819 15.1108 164.614 15.0229C164.407 14.9345 164.244 14.8095 164.124 14.681L167.048 11.9518ZM167.762 13.7266C167.762 13.0229 167.484 12.3519 166.951 11.8543L164.221 14.7785C164.093 14.6587 163.968 14.495 163.879 14.2888C163.792 14.0837 163.762 13.8874 163.762 13.7266H167.762ZM167 15.5627C167.488 15.0747 167.762 14.4271 167.762 13.7266H163.762C163.762 13.5651 163.792 13.3775 163.872 13.1858C163.951 12.9946 164.062 12.844 164.172 12.7342L167 15.5627ZM165.176 16.3125C165.835 16.3125 166.491 16.0716 167 15.5627L164.172 12.7342C164.299 12.6072 164.463 12.4928 164.659 12.4145C164.852 12.3372 165.032 12.3125 165.176 12.3125V16.3125ZM148.184 16.3125H165.176V12.3125H148.184V16.3125ZM150.184 19V14.3125H146.184V19H150.184ZM165.176 17H148.184V21H165.176V17ZM167.488 16.0389C166.83 16.6966 166.096 17 165.176 17V21C167.161 21 168.912 20.2721 170.317 18.8673L167.488 16.0389ZM168.449 13.7266C168.449 14.6471 168.146 15.3812 167.488 16.0389L170.317 18.8673C171.721 17.4626 172.449 15.7123 172.449 13.7266H168.449ZM167.488 11.4142C168.146 12.0719 168.449 12.806 168.449 13.7266H172.449C172.449 11.7408 171.721 9.99057 170.317 8.58579L167.488 11.4142ZM165.176 10.4531C166.096 10.4531 166.83 10.7565 167.488 11.4142L170.317 8.58579C168.912 7.181 167.161 6.45312 165.176 6.45312V10.4531ZM153.457 10.4531H165.176V6.45312H153.457V10.4531ZM151.671 9.75117C152.168 10.2151 152.8 10.4531 153.457 10.4531V6.45312C153.601 6.45312 153.773 6.47801 153.953 6.5481C154.134 6.6185 154.284 6.71919 154.4 6.82695L151.671 9.75117ZM150.871 7.86719C150.871 8.52465 151.109 9.15664 151.573 9.6537L154.497 6.92443C154.605 7.03988 154.706 7.18977 154.776 7.37081C154.846 7.55104 154.871 7.72299 154.871 7.86719H150.871ZM151.621 6.04282C151.112 6.55178 150.871 7.2084 150.871 7.86719H154.871C154.871 8.01059 154.846 8.19099 154.769 8.38438C154.691 8.58011 154.576 8.74425 154.449 8.87124L151.621 6.04282ZM153.457 5.28125C152.757 5.28125 152.109 5.55484 151.621 6.04282L154.449 8.87124C154.34 8.98104 154.189 9.09165 153.998 9.17135C153.806 9.25121 153.619 9.28125 153.457 9.28125V5.28125ZM170.449 5.28125H153.457V9.28125H170.449V5.28125ZM173.496 21H178.184V17H173.496V21ZM171.496 2.59375V19H175.496V2.59375H171.496ZM178.184 0.59375H173.496V4.59375H178.184V0.59375ZM180.184 19V2.59375H176.184V19H180.184ZM188.754 5.28125C187.253 5.28125 185.916 5.83725 184.855 6.89829L187.684 9.72671C187.998 9.41275 188.318 9.28125 188.754 9.28125V5.28125ZM195.785 5.28125H188.754V9.28125H195.785V5.28125ZM199.684 6.89829C198.623 5.83725 197.286 5.28125 195.785 5.28125V9.28125C196.221 9.28125 196.541 9.41275 196.855 9.72671L199.684 6.89829ZM201.301 10.7969C201.301 9.29552 200.745 7.95932 199.684 6.89829L196.855 9.72671C197.169 10.0407 197.301 10.3607 197.301 10.7969H201.301ZM199.684 14.6955C200.745 13.6344 201.301 12.2982 201.301 10.7969H197.301C197.301 11.233 197.169 11.5531 196.855 11.867L199.684 14.6955ZM195.785 16.3125C197.286 16.3125 198.623 15.7565 199.684 14.6955L196.855 11.867C196.541 12.181 196.221 12.3125 195.785 12.3125V16.3125ZM188.754 16.3125H195.785V12.3125H188.754V16.3125ZM184.855 14.6955C185.916 15.7565 187.253 16.3125 188.754 16.3125V12.3125C188.318 12.3125 187.998 12.181 187.684 11.867L184.855 14.6955ZM183.238 10.7969C183.238 12.2982 183.794 13.6344 184.855 14.6955L187.684 11.867C187.37 11.5531 187.238 11.233 187.238 10.7969H183.238ZM184.855 6.89829C183.794 7.95932 183.238 9.29552 183.238 10.7969H187.238C187.238 10.3607 187.37 10.0407 187.684 9.72671L184.855 6.89829ZM188.754 17C187.019 17 185.594 16.4098 184.367 15.1834L181.539 18.0119C183.516 19.9886 185.958 21 188.754 21V17ZM195.785 17H188.754V21H195.785V17ZM200.172 15.1834C198.945 16.4098 197.521 17 195.785 17V21C198.581 21 201.023 19.9886 203 18.0119L200.172 15.1834ZM201.988 10.7969C201.988 12.5322 201.398 13.9571 200.172 15.1834L203 18.0119C204.977 16.0351 205.988 13.5928 205.988 10.7969H201.988ZM200.172 6.41031C201.398 7.63667 201.988 9.06151 201.988 10.7969H205.988C205.988 8.00099 204.977 5.55864 203 3.58188L200.172 6.41031ZM195.785 4.59375C197.521 4.59375 198.945 5.18394 200.172 6.41031L203 3.58188C201.023 1.60512 198.581 0.59375 195.785 0.59375V4.59375ZM188.754 4.59375H195.785V0.59375H188.754V4.59375ZM184.367 6.41031C185.594 5.18394 187.019 4.59375 188.754 4.59375V0.59375C185.958 0.59375 183.516 1.60512 181.539 3.58188L184.367 6.41031ZM182.551 10.7969C182.551 9.06151 183.141 7.63667 184.367 6.41031L181.539 3.58188C179.562 5.55864 178.551 8.00099 178.551 10.7969H182.551ZM184.367 15.1834C183.141 13.9571 182.551 12.5322 182.551 10.7969H178.551C178.551 13.5928 179.562 16.0351 181.539 18.0119L184.367 15.1834ZM212.926 19V7.84375H208.926V19H212.926ZM206.238 21H210.926V17H206.238V21ZM204.238 2.59375V19H208.238V2.59375H204.238ZM212.484 0.59375H206.238V4.59375H212.484V0.59375ZM224.123 12.4033L213.963 1.24709L211.006 3.94041L221.166 15.0967L224.123 12.4033ZM220.645 2.59375V13.75H224.645V2.59375H220.645ZM227.332 0.59375H222.645V4.59375H227.332V0.59375ZM229.332 19V2.59375H225.332V19H229.332ZM221.086 21H227.332V17H221.086V21ZM209.447 9.19041L219.607 20.3467L222.565 17.6533L212.404 6.49709L209.447 9.19041ZM254.715 7.28125V2.59375H250.715V7.28125H254.715ZM235.723 9.28125H252.715V5.28125H235.723V9.28125ZM236.715 8.87124C236.605 8.98104 236.455 9.09165 236.263 9.17135C236.072 9.25121 235.884 9.28125 235.723 9.28125V5.28125C235.022 5.28125 234.375 5.55484 233.887 6.04282L236.715 8.87124ZM237.137 7.86719C237.137 8.01059 237.112 8.19099 237.035 8.38438C236.956 8.58011 236.842 8.74425 236.715 8.87124L233.887 6.04282C233.378 6.55178 233.137 7.2084 233.137 7.86719H237.137ZM236.763 6.92443C236.871 7.03988 236.971 7.18977 237.042 7.37081C237.112 7.55104 237.137 7.72299 237.137 7.86719H233.137C233.137 8.52465 233.375 9.15664 233.839 9.6537L236.763 6.92443ZM235.723 6.45312C235.867 6.45312 236.039 6.47801 236.219 6.5481C236.4 6.6185 236.55 6.71919 236.665 6.82695L233.936 9.75117C234.433 10.2151 235.065 10.4531 235.723 10.4531V6.45312ZM247.441 6.45312H235.723V10.4531H247.441V6.45312ZM252.582 8.58579C251.177 7.181 249.427 6.45312 247.441 6.45312V10.4531C248.362 10.4531 249.096 10.7565 249.754 11.4142L252.582 8.58579ZM254.715 13.7266C254.715 11.7408 253.987 9.99057 252.582 8.58579L249.754 11.4142C250.411 12.0719 250.715 12.806 250.715 13.7266H254.715ZM252.582 18.8673C253.987 17.4626 254.715 15.7123 254.715 13.7266H250.715C250.715 14.6471 250.411 15.3812 249.754 16.0389L252.582 18.8673ZM247.441 21C249.427 21 251.177 20.2721 252.582 18.8673L249.754 16.0389C249.096 16.6966 248.362 17 247.441 17V21ZM230.449 21H247.441V17H230.449V21ZM228.449 14.3125V19H232.449V14.3125H228.449ZM247.441 12.3125H230.449V16.3125H247.441V12.3125ZM246.437 12.7342C246.564 12.6072 246.728 12.4928 246.924 12.4145C247.118 12.3372 247.298 12.3125 247.441 12.3125V16.3125C248.1 16.3125 248.757 16.0716 249.266 15.5627L246.437 12.7342ZM246.027 13.7266C246.027 13.5651 246.057 13.3775 246.137 13.1858C246.217 12.9946 246.328 12.844 246.437 12.7342L249.266 15.5627C249.754 15.0747 250.027 14.4271 250.027 13.7266H246.027ZM246.487 14.7785C246.359 14.6587 246.233 14.495 246.145 14.2888C246.057 14.0837 246.027 13.8874 246.027 13.7266H250.027C250.027 13.0229 249.749 12.3519 249.216 11.8543L246.487 14.7785ZM247.441 15.1406C247.281 15.1406 247.084 15.1108 246.879 15.0229C246.673 14.9345 246.509 14.8095 246.389 14.681L249.314 11.9518C248.816 11.4187 248.145 11.1406 247.441 11.1406V15.1406ZM235.723 15.1406H247.441V11.1406H235.723V15.1406ZM230.582 13.008C231.987 14.4128 233.737 15.1406 235.723 15.1406V11.1406C234.802 11.1406 234.068 10.8372 233.41 10.1795L230.582 13.008ZM228.449 7.86719C228.449 9.85291 229.177 11.6032 230.582 13.008L233.41 10.1795C232.753 9.52182 232.449 8.78771 232.449 7.86719H228.449ZM230.582 2.72641C229.177 4.1312 228.449 5.88146 228.449 7.86719H232.449C232.449 6.94666 232.753 6.21255 233.41 5.55484L230.582 2.72641ZM235.723 0.59375C233.737 0.59375 231.987 1.32162 230.582 2.72641L233.41 5.55484C234.068 4.89713 234.802 4.59375 235.723 4.59375V0.59375ZM252.715 0.59375H235.723V4.59375H252.715V0.59375Z" fill="black" fill-opacity="0.7" mask="url(#path-1-outside-1_32_225)"/>
</svg>
